
        <svg xmlns="http://www.w3.org/2000/svg" xmlns:xlink="http://www.w3.org/1999/xlink" version="1.1" width="3148.5939497230506" 
        height="904.0553492037853" viewBox="0 0 3148.5939497230506 904.0553492037853">
			
			<g transform="scale(7.429697486152536) translate(10, 10)">
				<defs id="SvgjsDefs7866"><linearGradient id="SvgjsLinearGradient7873"><stop id="SvgjsStop7874" stop-color="#00ddff" offset="0"></stop><stop id="SvgjsStop7875" stop-color="#ff00d4" offset="1"></stop></linearGradient><linearGradient id="SvgjsLinearGradient7876"><stop id="SvgjsStop7877" stop-color="#00ddff" offset="0"></stop><stop id="SvgjsStop7878" stop-color="#ff00d4" offset="1"></stop></linearGradient><linearGradient id="SvgjsLinearGradient7879"><stop id="SvgjsStop7880" stop-color="#00ddff" offset="0"></stop><stop id="SvgjsStop7881" stop-color="#ff00d4" offset="1"></stop></linearGradient></defs><g id="SvgjsG7867" featureKey="symbolFeature-0" transform="matrix(0.1931951160274668,0,0,0.1931951160274668,-2.511536139866628,2.232695237464397)" fill="url(#SvgjsLinearGradient7873)"><g xmlns="http://www.w3.org/2000/svg"><g><g><g><g><path d="M476.2,327.5c-13.1,0-23.8-10.7-23.8-23.8c0-13.2,10.7-23.9,23.8-23.9s23.8,10.7,23.8,23.9       C500,316.8,489.3,327.5,476.2,327.5z M476.2,287.8c-8.7,0-15.8,7.1-15.8,15.9c0,8.7,7.1,15.8,15.8,15.8s15.8-7.1,15.8-15.8       C492,294.9,484.9,287.8,476.2,287.8z"></path></g><g><path d="M425.1,163.4c-13.2,0-23.9-10.7-23.9-23.9c0-13.1,10.7-23.8,23.9-23.8c13.1,0,23.8,10.7,23.8,23.8       C448.9,152.6,438.2,163.4,425.1,163.4z M425.1,123.7c-8.8,0-15.9,7.1-15.9,15.8c0,8.8,7.1,15.9,15.9,15.9       c8.7,0,15.8-7.1,15.8-15.9C440.9,130.7,433.8,123.7,425.1,123.7z"></path></g><g><path d="M382.9,492.1c-13.2,0-23.9-10.7-23.9-23.8s10.7-23.8,23.9-23.8c13.1,0,23.8,10.7,23.8,23.8S396,492.1,382.9,492.1z        M382.9,452.4c-8.8,0-15.9,7.1-15.9,15.8s7.1,15.8,15.9,15.8c8.7,0,15.8-7.1,15.8-15.8S391.6,452.4,382.9,452.4z"></path></g><g><path d="M271.8,67.1c-13.2,0-23.9-10.7-23.9-23.8s10.7-23.8,23.9-23.8c13.1,0,23.8,10.7,23.8,23.8       C295.6,56.4,284.9,67.1,271.8,67.1z M271.8,27.4c-8.8,0-15.9,7.1-15.9,15.8c0,8.7,7.1,15.8,15.9,15.8c8.7,0,15.8-7.1,15.8-15.8       C287.6,34.5,280.5,27.4,271.8,27.4z"></path></g><g><path d="M121.1,443.2c-18.8,0-35.2-11.4-41.7-28.8C50,412.9,29,388.8,29,355.9c0-4.9,0.6-9.8,1.8-14.4       c-11.3-11.1-17.8-26.4-17.8-42.1c0-15.2,5.7-29.5,16.1-40.4c-4.7-8.6-7.2-18.3-7.2-28.1c0-22.2,12.2-42.2,31.9-52.3       c3.9-10.6,11.6-19.3,21.8-24.4c2.1-30.4,27.8-54.7,58.6-54.7c7,0,13.8,1.2,20.2,3.6c1.5-0.2,3.1-0.3,4.9-0.3       c12.7,0,24.7,5,33.8,14c9.1,9.1,14,21.1,14,33.9v241.5c0,26.4-21.5,47.8-47.8,47.8c-5.5,0-10.9-0.9-15.9-2.7       C136.6,441.1,129,443.2,121.1,443.2z M36.3,335.7l0.3,0.1c1,0.3,1.9,1,2.4,2c0.5,0.9,0.6,2.1,0.3,3.1c-1.5,4.8-2.3,9.8-2.3,15       c0,29.8,18.7,50.6,45.4,50.6c1.8,0,3.3,1.2,3.8,2.8c4.7,15.5,18.7,25.9,34.9,25.9c7,0,13.8-2,19.7-5.7c1.1-0.7,2.5-0.8,3.7-0.3       c4.6,1.9,9.6,2.8,14.8,2.8c22,0,39.8-17.9,39.8-39.8V150.6c0-10.6-4.2-20.6-11.7-28.2c-7.5-7.5-17.5-11.7-28.1-11.7       c-2,0-3.7,0.1-5.3,0.4c-1,0.2-2.1,0-3-0.7c-0.2-0.1-0.3-0.2-0.4-0.3c-5.2-1.8-10.7-2.7-16.4-2.7c-27.5,0-50.3,22.4-50.8,49.8       c0,2.2-1.8,3.9-4,3.9h-0.1c-9.1,4.5-15.9,12.5-18.8,22.2c-0.6,1.9-2.4,3.1-4.3,2.8c-16.4,8.9-26.5,25.9-26.5,44.6       c0,9.1,2.4,17.7,7,25.7l0.1,0.1c0.8,0.8,1.2,1.8,1.2,2.9c0,1.1-0.5,2.1-1.3,2.9c-10.3,9.7-15.9,22.8-15.9,37       C20.9,313.2,26.4,326,36.3,335.7z M124.1,368.7c-7.3,0-13.3-6-13.3-13.3c0-7.3,5.9-13.3,13.3-13.3s13.3,5.9,13.3,13.3       C137.4,362.7,131.4,368.7,124.1,368.7z M124.1,350.1c-2.9,0-5.3,2.4-5.3,5.3c0,2.9,2.4,5.3,5.3,5.3s5.3-2.4,5.3-5.3       C129.4,352.5,127,350.1,124.1,350.1z M94.3,314.8c-7.3,0-13.2-5.9-13.2-13.3c0-7.3,5.9-13.3,13.2-13.3c7.3,0,13.3,6,13.3,13.3       C107.5,308.8,101.6,314.8,94.3,314.8z M94.3,296.3c-2.9,0-5.2,2.4-5.2,5.3c0,3,2.3,5.3,5.2,5.3c2.9,0,5.3-2.3,5.3-5.3       C99.5,298.7,97.1,296.3,94.3,296.3z M68.2,258.8c-7,0-12.7-5.3-13.2-12.2c-0.1-0.5-0.1-0.8-0.1-1c0-7.3,6-13.3,13.3-13.3       c7.3,0,13.3,5.9,13.3,13.3S75.5,258.8,68.2,258.8z M62.8,245.4c0,0.2,0,0.3,0.1,0.5c0.1,2.8,2.4,5,5.3,5c2.9,0,5.3-2.4,5.3-5.3       c0-2.9-2.4-5.3-5.3-5.3C65.3,240.3,63,242.6,62.8,245.4z M112,245.1c-7.3,0-13.3-6-13.3-13.3c0-7.3,5.9-13.3,13.3-13.3       c7.3,0,13.3,5.9,13.3,13.3C125.3,239.2,119.3,245.1,112,245.1z M112,226.5c-2.9,0-5.3,2.4-5.3,5.3c0,2.9,2.4,5.3,5.3,5.3       c2.9,0,5.3-2.4,5.3-5.3C117.3,228.9,114.9,226.5,112,226.5z M144.9,225.8c-7.3,0-13.3-6-13.3-13.3c0-7.3,6-13.3,13.3-13.3       c7.3,0,13.3,6,13.3,13.3C158.2,219.8,152.2,225.8,144.9,225.8z M144.9,207.2c-2.9,0-5.3,2.4-5.3,5.3c0,2.9,2.4,5.3,5.3,5.3       c2.9,0,5.3-2.4,5.3-5.3C150.2,209.6,147.8,207.2,144.9,207.2z M114.7,174.9c-7.3,0-13.3-5.9-13.3-13.2       c0-7.3,5.9-13.3,13.3-13.3s13.3,6,13.3,13.3C127.9,169,122,174.9,114.7,174.9z M114.7,156.4c-2.9,0-5.3,2.4-5.3,5.3       c0,2.9,2.4,5.2,5.3,5.2c2.9,0,5.3-2.3,5.3-5.2C119.9,158.8,117.6,156.4,114.7,156.4z"></path></g></g><g><g><path d="M237.6,439.7h-17.7c-2.2,0-4-1.8-4-4s1.8-4,4-4h13.7v-43.3c0-1.9,1.4-3.6,3.3-3.9c16.1-2.9,30.8-9,43.7-18.2       c1.6-1.1,3.8-0.9,5.1,0.4l30.6,30.7l22.2-22.3l-30.6-30.6c-1.4-1.4-1.6-3.5-0.4-5.1c9.2-13.1,15.3-27.8,18.1-43.8       c0.3-1.9,2-3.3,3.9-3.3H373v-31.5h-43.3c-1.9,0-3.6-1.4-3.9-3.3c-2.8-15.9-8.9-30.6-18.1-43.7c-1.1-1.6-0.9-3.7,0.4-5.1       l30.6-30.7l-22.2-22.3l-30.7,30.6c-1.4,1.4-3.5,1.6-5.1,0.5c-13.2-9.2-27.9-15.3-43.7-18.1c-1.9-0.3-3.3-2-3.3-3.9v-43.3h-13.8       c-2.2,0-4-1.8-4-4s1.8-4,4-4h17.8c2.2,0,4,1.8,4,4v44c14.6,3,28.2,8.7,40.8,16.9l31.1-31.1c1.6-1.6,4.1-1.6,5.7,0l27.9,27.9       c1.6,1.6,1.6,4.1,0,5.6L316.1,212c8.2,12.4,13.9,26.1,16.9,40.8h44c2.2,0,4,1.8,4,4v39.5c0,2.2-1.8,4-4,4h-44       c-3,14.7-8.7,28.4-16.9,40.9l31.1,31.1c1.6,1.6,1.6,4.1,0,5.7l-27.9,28c-0.8,0.8-1.8,1.2-2.8,1.2c0,0,0,0,0,0       c-1.1,0-2.1-0.4-2.8-1.2l-31.1-31.2c-12.3,8.2-26,13.9-40.8,16.9v44C241.6,437.9,239.8,439.7,237.6,439.7z"></path></g><g><path d="M219.9,349.9c-2.2,0-3.9-1.7-4-3.9c-0.1-2.2,1.7-4,3.9-4.1c35-1,63.6-30.3,63.6-65.4c0-35.7-27.9-64.4-63.6-65.5       c-2.2-0.1-3.9-1.9-3.9-4.1c0.1-2.2,1.9-3.9,4.1-3.9c19.2,0.6,37.1,8.4,50.5,22.2c13.4,13.8,20.8,32,20.8,51.3       c0,19.2-7.4,37.4-20.8,51.2c-13.4,13.8-31.3,21.6-50.5,22.1C220,349.9,219.9,349.9,219.9,349.9z"></path></g><g><path d="M219.9,309.9c-2.1,0-3.8-1.6-4-3.7c-0.1-2.2,1.5-4.1,3.7-4.3c13.2-0.9,23.6-12,23.6-25.3c0-13.4-10.4-24.5-23.6-25.4       c-2.2-0.1-3.9-2-3.7-4.2c0.1-2.2,2-3.9,4.2-3.7c17.4,1.1,31.1,15.7,31.1,33.3c0,17.5-13.7,32.1-31.1,33.3       C220.1,309.9,220,309.9,219.9,309.9z"></path></g><g><path d="M121.1,442.4c-19.7,0-36.9-12.7-42.6-31.5c-1.3-4.1-1.9-8.4-1.9-12.9c0-22.1,16.4-41,38.3-44.1       c2.2-0.3,4.2,1.2,4.5,3.4c0.3,2.2-1.2,4.2-3.4,4.5c-17.9,2.5-31.4,18.1-31.4,36.2c0,3.7,0.5,7.2,1.6,10.5       c4.7,15.5,18.8,25.9,35,25.9c7,0,13.8-2,19.7-5.7c1.1-0.7,2.5-0.8,3.7-0.3c4.6,1.9,9.6,2.8,14.8,2.8c22,0,39.8-17.9,39.8-39.8       c0-2.2,1.8-4,4-4s4,1.8,4,4c0,26.4-21.5,47.8-47.8,47.8c-5.5,0-10.9-0.9-15.9-2.7C136.6,440.4,129,442.4,121.1,442.4z"></path></g><g><path d="M203.1,153.9c-2.2,0-4-1.8-4-4c0-10.6-4.2-20.6-11.7-28.2c-7.5-7.5-17.5-11.7-28.1-11.7c-2,0-3.7,0.1-5.3,0.4       c-0.1,0-0.1,0-0.2,0c-19.6,2.7-34.4,19.6-34.4,39.5c0,2.2-1.8,4-4,4s-4-1.8-4-4c0-23.8,17.7-44.1,41.2-47.4       c2-0.4,4.1-0.5,6.6-0.5c12.7,0,24.7,5,33.8,14c9.1,9.1,14,21.1,14,33.9C207.1,152.1,205.3,153.9,203.1,153.9z"></path></g><g><path d="M82.3,413.7c-30.9,0-53.4-24.6-53.4-58.6c0-6,0.9-11.9,2.7-17.5c7.3-23.5,28.7-40.1,53.2-41.3c2.2-0.1,4.1,1.6,4.2,3.8       s-1.6,4.1-3.8,4.2c-21.2,1-39.7,15.4-46,35.7c-1.5,4.8-2.3,9.8-2.3,15.1c0,29.8,18.7,50.6,45.4,50.6c2.2,0,4,1.8,4,4       S84.6,413.7,82.3,413.7z"></path></g><g><path d="M34.3,342.5c-1,0-2-0.4-2.7-1.1c-11.8-11.1-18.6-26.8-18.6-42.8c0-16.4,6.6-31.6,18.5-42.8c7.4-7,16.6-12,26.6-14.5       c2.1-0.5,4.3,0.8,4.8,2.9c0.5,2.1-0.8,4.3-2.9,4.8c-8.6,2.1-16.5,6.4-23,12.5c-10.3,9.7-15.9,22.8-15.9,37       c0,14.1,5.7,27.2,16.1,37c1.6,1.5,1.7,4,0.2,5.7C36.4,342.1,35.3,342.5,34.3,342.5z"></path></g><g><path d="M33.7,262.2c-1.4,0-2.7-0.7-3.4-1.9c-5.5-9.2-8.4-19.6-8.4-30.2c0-22.2,12.2-42.2,31.9-52.3c2-1,4.4-0.2,5.4,1.7       c1,2,0.2,4.4-1.7,5.4c-17,8.7-27.6,26.1-27.6,45.2c0,9.3,2.4,18.1,7.3,26.1c1.1,1.9,0.5,4.4-1.4,5.5       C35.1,262.1,34.4,262.2,33.7,262.2z"></path></g><g><path d="M134.2,216.2c-32.4,0-58.8-26.4-58.8-58.8v-1c0.6-31.9,26.9-57.8,58.8-57.8c7.1,0,14,1.2,20.5,3.7       c2.1,0.8,3.1,3.1,2.3,5.2c-0.8,2.1-3.1,3.1-5.2,2.3c-5.6-2.1-11.5-3.2-17.6-3.2c-27.5,0-50.3,22.4-50.8,49.8v0.9       c0,28,22.8,50.8,50.8,50.8c2.2,0,4,1.8,4,4S136.4,216.2,134.2,216.2z"></path></g><g><path d="M100.2,231.3c-24.5,0-49.2-13.1-49.2-38.1c0-4.4,0.6-8.8,1.9-12.9c3.6-12.1,12.3-22.2,23.8-27.5c2-0.9,4.4-0.1,5.3,2       c0.9,2,0.1,4.4-2,5.3c-9.5,4.4-16.6,12.6-19.5,22.6c-1,3.3-1.6,7-1.6,10.5c0,19.8,20.7,30.1,41.2,30.1c2.2,0,4,1.8,4,4       S102.4,231.3,100.2,231.3z"></path></g><g><path d="M203.1,395.3c-2.2,0-4-1.8-4-4V149.9c0-2.2,1.8-4,4-4s4,1.8,4,4v241.5C207.1,393.5,205.3,395.3,203.1,395.3z"></path></g><g><path d="M144.9,225c-7.3,0-13.3-5.9-13.3-13.3c0-7.3,6-13.3,13.3-13.3c7.3,0,13.3,6,13.3,13.3C158.2,219.1,152.2,225,144.9,225       z M144.9,206.4c-2.9,0-5.3,2.4-5.3,5.3c0,2.9,2.4,5.3,5.3,5.3c2.9,0,5.3-2.4,5.3-5.3C150.2,208.8,147.8,206.4,144.9,206.4z"></path></g><g><path d="M114.7,174.1c-7.3,0-13.3-5.9-13.3-13.2c0-7.3,5.9-13.3,13.3-13.3s13.3,5.9,13.3,13.3       C127.9,168.2,122,174.1,114.7,174.1z M114.7,155.7c-2.9,0-5.3,2.4-5.3,5.3c0,2.9,2.4,5.2,5.3,5.2s5.3-2.3,5.3-5.2       C119.9,158,117.6,155.7,114.7,155.7z"></path></g><g><path d="M112,244.4c-7.3,0-13.3-6-13.3-13.3c0-7.3,5.9-13.3,13.3-13.3c7.3,0,13.3,5.9,13.3,13.3       C125.3,238.4,119.3,244.4,112,244.4z M112,225.8c-2.9,0-5.3,2.4-5.3,5.3c0,2.9,2.4,5.3,5.3,5.3c2.9,0,5.3-2.4,5.3-5.3       C117.3,228.1,114.9,225.8,112,225.8z"></path></g><g><path d="M68.2,258.1c-7,0-12.7-5.3-13.2-12.2c-0.1-0.5-0.1-0.8-0.1-1c0-7.3,6-13.3,13.3-13.3c7.3,0,13.3,5.9,13.3,13.3       C81.4,252.1,75.5,258.1,68.2,258.1z M62.8,244.6c0,0.2,0,0.3,0.1,0.5c0.1,2.8,2.4,5,5.3,5c2.9,0,5.3-2.4,5.3-5.3       s-2.4-5.3-5.3-5.3C65.3,239.6,63,241.8,62.8,244.6z"></path></g><g><path d="M94.3,314c-7.3,0-13.2-5.9-13.2-13.3s5.9-13.3,13.2-13.3c7.3,0,13.3,5.9,13.3,13.3S101.6,314,94.3,314z M94.3,295.5       c-2.9,0-5.2,2.4-5.2,5.3c0,3,2.3,5.3,5.2,5.3c2.9,0,5.3-2.3,5.3-5.3C99.5,297.9,97.1,295.5,94.3,295.5z"></path></g><g><path d="M124.1,367.9c-7.3,0-13.3-6-13.3-13.3c0-7.3,5.9-13.3,13.3-13.3c7.3,0,13.3,5.9,13.3,13.3       C137.4,361.9,131.4,367.9,124.1,367.9z M124.1,349.3c-2.9,0-5.3,2.4-5.3,5.3c0,2.9,2.4,5.3,5.3,5.3s5.3-2.4,5.3-5.3       C129.4,351.7,127,349.3,124.1,349.3z"></path></g><g><path d="M228.8,121.4c-2.2,0-4-1.8-4-4l-0.4-49.7c0-1.5,0.8-2.9,2.2-3.6l24.2-12.6c2-1,4.4-0.3,5.4,1.7c1,2,0.3,4.4-1.7,5.4       l-22.1,11.4l0.4,47.2C232.8,119.6,231,121.4,228.8,121.4C228.8,121.4,228.8,121.4,228.8,121.4z"></path></g><g><path d="M271.8,67.1c-13.2,0-23.9-10.7-23.9-23.8s10.7-23.8,23.9-23.8c13.1,0,23.8,10.7,23.8,23.8       C295.6,56.4,284.9,67.1,271.8,67.1z M271.8,27.4c-8.8,0-15.9,7.1-15.9,15.8c0,8.7,7.1,15.8,15.9,15.8c8.7,0,15.8-7.1,15.8-15.8       C287.6,34.5,280.5,27.4,271.8,27.4z"></path></g><g><path d="M344.3,181.9c-2.2,0-4-1.8-4-4c0-2.2,1.8-4,4-4l16.2-0.1l20.8-29.1c0.7-0.9,1.7-1.5,2.9-1.7l19-1.8       c2.2-0.2,4.2,1.4,4.4,3.6c0.2,2.2-1.4,4.2-3.6,4.4l-17.2,1.6l-20.9,29.3c-0.7,1-2,1.7-3.2,1.7L344.3,181.9       C344.3,181.9,344.3,181.9,344.3,181.9z"></path></g><g><path d="M425.1,163.4c-13.2,0-23.9-10.7-23.9-23.9c0-13.1,10.7-23.8,23.9-23.8c13.1,0,23.8,10.7,23.8,23.8       C448.9,152.6,438.2,163.4,425.1,163.4z M425.1,123.7c-8.8,0-15.9,7.1-15.9,15.8c0,8.8,7.1,15.9,15.9,15.9       c8.7,0,15.8-7.1,15.8-15.9C440.9,130.7,433.8,123.7,425.1,123.7z"></path></g><g><path d="M430,314c-1.2,0-2.4-0.5-3.1-1.5l-27.1-33.6l-22.5,1.7c-2.2,0.2-4.1-1.5-4.3-3.7s1.5-4.1,3.7-4.3l24.6-1.9       c1.3-0.1,2.6,0.5,3.4,1.5l27.2,33.7l25.1-0.8c2.2-0.1,4.1,1.7,4.1,3.9s-1.7,4.1-3.9,4.1l-27.1,0.8C430.1,314,430,314,430,314z"></path></g><g><path d="M476.2,327.5c-13.1,0-23.8-10.7-23.8-23.8c0-13.2,10.7-23.9,23.8-23.9s23.8,10.7,23.8,23.9       C500,316.8,489.3,327.5,476.2,327.5z M476.2,287.8c-8.7,0-15.8,7.1-15.8,15.9c0,8.7,7.1,15.8,15.8,15.8s15.8-7.1,15.8-15.8       C492,294.9,484.9,287.8,476.2,287.8z"></path></g><g><path d="M363.3,461c-0.4,0-0.9-0.1-1.3-0.2l-32.5-11.1c-1.6-0.5-2.7-2.1-2.7-3.8l-0.4-56.8c0-2.2,1.8-4,4-4c0,0,0,0,0,0       c2.2,0,4,1.8,4,4l0.4,53.9l29.8,10.2c2.1,0.7,3.2,3,2.5,5.1C366.5,459.9,365,461,363.3,461z"></path></g><g><path d="M382.9,492.1c-13.2,0-23.9-10.7-23.9-23.8s10.7-23.8,23.9-23.8c13.1,0,23.8,10.7,23.8,23.8S396,492.1,382.9,492.1z        M382.9,452.4c-8.8,0-15.9,7.1-15.9,15.8s7.1,15.8,15.9,15.8c8.7,0,15.8-7.1,15.8-15.8S391.6,452.4,382.9,452.4z"></path></g></g></g></g></g></g><g id="SvgjsG7868" featureKey="nameFeature-0" transform="matrix(2.095335212663836,0,0,2.095335212663836,130.91828285390218,-24.64101469139878)" fill="url(#SvgjsLinearGradient7876)"><path d="M17.715 12.050999999999998 l-17.676 27.949 l5.0195 0 l4.1211 -6.5234 l9.4922 0 l0 6.5234 l4.2578 0 l0 -27.949 l-5.2148 0 z M18.672 18.477 l0 10.762 l-6.8164 0 z M27.9101625 12.050999999999998 l0 27.949 l5.1953 0 l12.383 -21.035 l0 21.035 l5.1953 0 l16.465 -27.949 l-4.9219 0 l-12.48 21.191 l0 -21.191 l-5.1172 0 l-12.48 21.191 l0 -21.191 l-4.2383 0 z M69.51176875 12.050999999999998 l0 27.949 l14.258 0 l0 -4.2383 l-10.02 0 l0 -7.6563 l7.7344 0 l0 -4.2383 l-7.7344 0 l0 -7.5781 l10.02 0 l0 -4.2383 l-14.258 0 z M87.16801875 12.050999999999998 l0 27.949 l14.258 0 l0 -4.2383 l-10.02 0 l0 -23.711 l-4.2383 0 z M112.26566875 40.25391 c-1.849 -0.078125 -3.5547 -0.57291 -5.1172 -1.4844 c-1.7708 -1.0287 -2.9752 -2.4088 -3.6133 -4.1406 l3.9844 -1.4648 c0.32553 0.85938 0.99609 1.556 2.0117 2.0898 c0.89844 0.45572 1.875 0.70963 2.9297 0.76172 c1.6276 0.065098 2.9752 -0.33203 4.043 -1.1914 c0.89844 -0.72916 1.3737 -1.5625 1.4258 -2.5 c0.078125 -1.7838 -1.7904 -3.2096 -5.6055 -4.2773 c-5.9766 -1.6797 -8.8736 -4.5248 -8.6914 -8.5352 c0.11719 -2.8125 1.3216 -4.9154 3.6133 -6.3086 c1.7448 -1.0677 3.8412 -1.543 6.2891 -1.4258 c2.9688 0.13021 5.3516 1.1654 7.1484 3.1055 l-3.1055 2.8906 c-1.0156 -1.0938 -2.4283 -1.6797 -4.2383 -1.7578 c-1.276 -0.05209 -2.3633 0.11066 -3.2617 0.48826 c-1.4063 0.59896 -2.142 1.6667 -2.207 3.2031 c-0.078125 1.7578 1.7904 3.1705 5.6055 4.2383 c3.4375 0.96354 5.8725 2.3828 7.3047 4.2578 c0.98959 1.3021 1.4518 2.7408 1.3867 4.3164 c-0.10416 2.2135 -1.1068 4.0885 -3.0078 5.625 c-1.7708 1.4193 -3.8932 2.1289 -6.3672 2.1289 c-0.18229 0 -0.35807 -0.0065041 -0.52734 -0.019531 z"></path></g><g id="SvgjsG7869" featureKey="sloganFeature-0" transform="matrix(2.2220214488330288,0,0,2.2220214488330288,111.39601298867315,56.93696116949974)" fill="url(#SvgjsLinearGradient7879)"><path d="M1.1719 6.025 l0 13.975 l7.1289 0 l0 -2.1191 l-5.0098 0 l0 -3.8281 l3.8672 0 l0 -2.1191 l-3.8672 0 l0 -3.7891 l5.0098 0 l0 -2.1191 l-7.1289 0 z M20.57085078125 6.025 l0 9.9902 l-5.9668 -9.9902 l-2.2168 0 l0 13.975 l2.1191 0 l0 -9.9902 l5.9766 9.9902 l2.2168 0 l0 -13.975 l-2.1289 0 z M28.9247890625 18.0469 c-1.3933 -1.3933 -2.0898 -3.0729 -2.0898 -5.0391 s0.69661 -3.6458 2.0898 -5.0391 s3.0729 -2.0898 5.0391 -2.0898 c0.97005 0 1.8945 0.18555 2.7734 0.55664 l-0.82031 1.9629 c-0.625 -0.26692 -1.2761 -0.40039 -1.9531 -0.40039 c-1.3802 0 -2.5586 0.49153 -3.5352 1.4746 c-0.97656 0.97656 -1.4648 2.155 -1.4648 3.5352 s0.48828 2.5586 1.4648 3.5352 s2.155 1.4648 3.5352 1.4648 c0.44922 0 0.88542 -0.055342 1.3086 -0.16602 l0 -3.8086 l-2.2656 0 l0 -2.1289 l4.3945 0 l0 7.3926 l-0.64453 0.27344 c-0.89192 0.37761 -1.8229 0.56641 -2.793 0.56641 c-1.9661 0 -3.6458 -0.69661 -5.0391 -2.0898 z M43.70454296875 6.045 l-2.1191 0 l0 13.955 l2.1191 0 l0 -13.955 z M56.58989375 6.025 l0 9.9902 l-5.9668 -9.9902 l-2.2168 0 l0 13.975 l2.1191 0 l0 -9.9902 l5.9766 9.9902 l2.2168 0 l0 -13.975 l-2.1289 0 z M63.44973203125 6.025 l0 13.975 l7.1289 0 l0 -2.1191 l-5.0098 0 l0 -3.8281 l3.8672 0 l0 -2.1191 l-3.8672 0 l0 -3.7891 l5.0098 0 l0 -2.1191 l-7.1289 0 z M74.8017828125 6.025 l0 13.975 l7.1289 0 l0 -2.1191 l-5.0098 0 l0 -3.8281 l3.8672 0 l0 -2.1191 l-3.8672 0 l0 -3.7891 l5.0098 0 l0 -2.1191 l-7.1289 0 z M88.16553359375 11.9922 l0 -3.8477 l3.0371 0 c0.52734 0 0.97979 0.1888 1.3574 0.56641 c0.37109 0.37761 0.55664 0.83334 0.55664 1.3672 c0 0.52734 -0.18555 0.97656 -0.55664 1.3477 c-0.37761 0.37761 -0.83008 0.56641 -1.3574 0.56641 l-3.0371 0 z M92.78463359375 13.789100000000001 c0.72917 -0.3125 1.3184 -0.80077 1.7676 -1.4648 c0.46224 -0.67708 0.69336 -1.4258 0.69336 -2.2461 c0 -1.1198 -0.39714 -2.0735 -1.1914 -2.8613 c-0.78776 -0.79427 -1.7383 -1.1914 -2.8516 -1.1914 l-5.1563 0 l0 13.975 l2.1191 0 l0 -5.8887 l2.3926 0 l3.0566 5.8887 l2.3926 0 z M101.871046875 6.045 l-2.1191 0 l0 13.955 l2.1191 0 l0 -13.955 z M114.75639765625 6.025 l0 9.9902 l-5.9668 -9.9902 l-2.2168 0 l0 13.975 l2.1191 0 l0 -9.9902 l5.9766 9.9902 l2.2168 0 l0 -13.975 l-2.1289 0 z M123.1103359375 18.0469 c-1.3933 -1.3933 -2.0898 -3.0729 -2.0898 -5.0391 s0.69661 -3.6458 2.0898 -5.0391 s3.0729 -2.0898 5.0391 -2.0898 c0.97005 0 1.8945 0.18555 2.7734 0.55664 l-0.82031 1.9629 c-0.625 -0.26692 -1.2761 -0.40039 -1.9531 -0.40039 c-1.3802 0 -2.5586 0.49153 -3.5352 1.4746 c-0.97656 0.97656 -1.4648 2.155 -1.4648 3.5352 s0.48828 2.5586 1.4648 3.5352 s2.155 1.4648 3.5352 1.4648 c0.44922 0 0.88542 -0.055342 1.3086 -0.16602 l0 -3.8086 l-2.2656 0 l0 -2.1289 l4.3945 0 l0 7.3926 l-0.64453 0.27344 c-0.89192 0.37761 -1.8229 0.56641 -2.793 0.56641 c-1.9661 0 -3.6458 -0.69661 -5.0391 -2.0898 z"></path></g>
			</g>
		</svg>
	